<svg xmlns="http://www.w3.org/2000/svg" viewBox="0 0 26 21">
  <defs/>
  <g fill="#ff6700" fill-rule="evenodd">
    <path d="M9.13 13.05h11.91l2.01-7.28H7.12l2 7.28zm12.67 2H8.36a1 1 0 01-.96-.73L4.84 5.03a1 1 0 01.96-1.26h18.56a1 1 0 01.97 1.26l-2.56 9.29a1 1 0 01-.97.73z"/>
    <path d="M8.36 15.05a1 1 0 01-.96-.73L4.06 2.14.96 2A1 1 0 010 .96C.02.4.46-.04 1.04 0l3.84.17A1 1 0 015.8.9L9.33 13.8a1 1 0 01-.97 1.26M10.75 17.5a.75.75 0 100 1.5.75.75 0 000-1.5m0 3.5a2.75 2.75 0 110-5.5 2.75 2.75 0 010 5.5M19.08 17.5a.75.75 0 100 1.5.75.75 0 000-1.5m0 3.5a2.75 2.75 0 110-5.5 2.75 2.75 0 010 5.5"/>
  </g>
</svg>
