<svg xmlns="http://www.w3.org/2000/svg" viewBox="0 0 19 19">
  <defs/>
  <g fill="#FFF" fill-rule="nonzero">
    <path d="M9.5 1.71c2.54 0 2.84.01 3.84.06.92.04 1.43.2 1.76.33.41.15.79.4 1.1.7.3.31.55.69.7 1.1.13.33.29.84.33 1.76.05 1 .06 1.3.06 3.84s-.01 2.84-.06 3.84c-.04.92-.2 1.43-.33 1.76a3.15 3.15 0 01-1.8 1.8c-.33.13-.84.29-1.76.33-1 .05-1.3.06-3.84.06a65.9 65.9 0 01-3.84-.06 5.26 5.26 0 01-1.76-.33c-.41-.15-.79-.4-1.1-.7-.3-.31-.55-.69-.7-1.1a5.25 5.25 0 01-.33-1.76c-.05-1-.06-1.3-.06-3.84s.01-2.84.06-3.84c.04-.92.2-1.43.33-1.76.15-.41.4-.79.7-1.1.31-.3.69-.55 1.1-.7.33-.13.84-.29 1.76-.33 1-.05 1.3-.06 3.84-.06zm0-1.7C6.92 0 6.6 0 5.58.05c-1 .05-1.7.2-2.3.44-.63.24-1.2.61-1.68 1.1A4.66 4.66 0 00.5 3.28c-.23.6-.4 1.3-.44 2.3A67.1 67.1 0 000 9.5c0 2.58.01 2.9.06 3.92.05 1 .2 1.7.44 2.3.24.63.61 1.2 1.1 1.68.47.49 1.05.86 1.68 1.1.6.23 1.3.4 2.3.44 1.02.05 1.34.06 3.92.06s2.9-.01 3.92-.06c1-.05 1.7-.2 2.3-.44a4.86 4.86 0 002.78-2.78c.23-.6.4-1.3.44-2.3.05-1.02.06-1.34.06-3.92s-.01-2.9-.06-3.92a6.97 6.97 0 00-.44-2.3 4.66 4.66 0 00-1.1-1.68A4.66 4.66 0 0015.72.5c-.6-.23-1.3-.4-2.3-.44A67.1 67.1 0 009.5 0z"/>
    <path d="M9.5 4.62a4.88 4.88 0 100 9.76 4.88 4.88 0 000-9.76zm0 8.05a3.17 3.17 0 110-6.34 3.17 3.17 0 010 6.34z"/>
    <circle cx="14.57" cy="4.43" r="1.14"/>
  </g>
</svg>
